<svg xmlns="http://www.w3.org/2000/svg" viewBox="0 0 24 24" fill="none" stroke="#f59e0b" stroke-width="1.5" stroke-linecap="round" stroke-linejoin="round">
    <defs>
        <clipPath id="glass">
            <path d="M9 21h6a1 1 0 0 0 1 -1v-3.625c0 -1.397 .29 -2.775 .845 -4.025l.31 -.7c.556 -1.25 .845 -2.253 .845 -3.65v-4a1 1 0 0 0 -1 -1h-10a1 1 0 0 0 -1 1v4c0 1.397 .29 2.4 .845 3.65l.31 .7a9.931 9.931 0 0 1 .845 4.025v3.625a1 1 0 0 0 1 1" />
        </clipPath>
    </defs>
    <g clip-path="url(#glass)">
        <!-- Foam -->
        <ellipse cx="8" cy="5" rx="2.5" ry="2" fill="white" stroke="none" />
        <ellipse cx="12" cy="4.5" rx="2.5" ry="2.2" fill="white" stroke="none" />
        <ellipse cx="16" cy="5" rx="2.5" ry="2" fill="white" stroke="none" />
        <ellipse cx="10" cy="6" rx="2" ry="1.5" fill="white" stroke="none" />
        <ellipse cx="14" cy="6" rx="2" ry="1.5" fill="white" stroke="none" />
        <!-- Beer liquid -->
        <rect x="4" y="7" width="16" height="16" fill="#f59e0b" stroke="none" />
    </g>
    <!-- Glass outline -->
    <path d="M9 21h6a1 1 0 0 0 1 -1v-3.625c0 -1.397 .29 -2.775 .845 -4.025l.31 -.7c.556 -1.25 .845 -2.253 .845 -3.65v-4a1 1 0 0 0 -1 -1h-10a1 1 0 0 0 -1 1v4c0 1.397 .29 2.4 .845 3.65l.31 .7a9.931 9.931 0 0 1 .845 4.025v3.625a1 1 0 0 0 1 1" />
    <path d="M6 8h12" />
</svg>
